<svg xmlns="http://www.w3.org/2000/svg" width="414.252" height="426.821" viewBox="0 0 414.252 426.821">
  <g id="Group_2126" data-name="Group 2126" transform="translate(-42.874 -43.294)">
    <g id="Background_Complete" data-name="Background Complete">
      <g id="Group_1" data-name="Group 1">
        <rect id="Rectangle_1" data-name="Rectangle 1" width="29.896" height="12.633" transform="translate(62.74 304.512)" fill="none" stroke="#ebebeb" stroke-miterlimit="10" stroke-width="1"/>
        <rect id="Rectangle_2" data-name="Rectangle 2" width="29.896" height="12.633" transform="translate(46.063 320.441)" fill="none" stroke="#ebebeb" stroke-miterlimit="10" stroke-width="1"/>
        <rect id="Rectangle_3" data-name="Rectangle 3" width="29.896" height="12.633" transform="translate(46.063 47.081)" fill="none" stroke="#ebebeb" stroke-miterlimit="10" stroke-width="1"/>
        <rect id="Rectangle_4" data-name="Rectangle 4" width="29.897" height="12.633" transform="translate(424.04 47.081)" fill="none" stroke="#ebebeb" stroke-miterlimit="10" stroke-width="1"/>
        <rect id="Rectangle_5" data-name="Rectangle 5" width="29.896" height="12.633" transform="translate(407.363 63.011)" fill="none" stroke="#ebebeb" stroke-miterlimit="10" stroke-width="1"/>
        <rect id="Rectangle_6" data-name="Rectangle 6" width="29.896" height="12.633" transform="translate(330.795 210.804)" fill="none" stroke="#ebebeb" stroke-miterlimit="10" stroke-width="1"/>
        <rect id="Rectangle_7" data-name="Rectangle 7" width="29.896" height="12.633" transform="translate(314.118 226.734)" fill="none" stroke="#ebebeb" stroke-miterlimit="10" stroke-width="1"/>
        <rect id="Rectangle_8" data-name="Rectangle 8" width="29.897" height="12.633" transform="translate(297.507 210.804)" fill="none" stroke="#ebebeb" stroke-miterlimit="10" stroke-width="1"/>
        <rect id="Rectangle_9" data-name="Rectangle 9" width="29.897" height="12.633" transform="translate(424.04 320.441)" fill="none" stroke="#ebebeb" stroke-miterlimit="10" stroke-width="1"/>
        <rect id="Rectangle_10" data-name="Rectangle 10" width="29.896" height="12.633" transform="translate(170.03 84.648)" fill="none" stroke="#ebebeb" stroke-miterlimit="10" stroke-width="1"/>
      </g>
    </g>
    <g id="Plant">
      <g id="Group_9" data-name="Group 9">
        <g id="Group_4" data-name="Group 4">
          <path id="Path_5" data-name="Path 5" d="M88.835,303.84c-13.068,12.794-15.262,32.587-12.508,49.924.072.394.68.286.68-.083,0-3.947-.119-7.858-.107-11.757.071-.179.131-.346.2-.525,3.411-2.48,6.546-5.282,8.49-9.121,2.182-4.293,3.04-9.134,4.71-13.617.155-.429-.3-.3-.6-.082-7.95,5.863-10.483,12.172-12.764,20.6a70.1,70.1,0,0,1,1.383-13.128c1.717-8,5.115-15.931,10.862-21.868C89.4,303.959,89.062,303.613,88.835,303.84Z" fill="#aac2e6"/>
          <g id="Group_3" data-name="Group 3">
            <path id="Path_6" data-name="Path 6" d="M91.291,305.331c2.249.076,3.658,3.67,5.41,4.718a1.685,1.685,0,0,0,2.481-.39c1.736-2.423-.646-5.413-2.886-7.085,1.6.659,2.931,1.816,4.658,2.144a1.623,1.623,0,0,0,2.1-1.259c.761-3.3-3.383-4.774-6.226-4.843,1.379-.958,5.329-3.563,3.23-4.844-2.127-1.286-6.762,2.439-8.274,3.666-2.223,1.8-4.873,4.5-4.973,7.317C86.683,308.048,89.561,306.022,91.291,305.331Z" fill="#aac2e6"/>
            <path id="Path_8" data-name="Path 8" d="M90.641,305.886c2.874-1.307,8.4.574,8.866-.514.952-2.215-3.461-3.734-5.843-4.028,2.194-.594,6.4-1.541,6.268-3.656-.158-2.584-6.447-.362-9.63,2.079-4.01,3.075-3.984,6.041-3.321,6.636C87.89,307.218,90.166,306.1,90.641,305.886Z" fill="#d5e6ff"/>
          </g>
        </g>
        <g id="Group_6" data-name="Group 6">
          <path id="Path_9" data-name="Path 9" d="M59.073,302.573c13.546,12.288,16.491,31.984,14.4,49.413-.057.4-.668.312-.683-.058-.15-3.943-.179-7.856-.339-11.752-.079-.176-.145-.34-.223-.517-3.5-2.348-6.742-5.029-8.83-8.792-2.344-4.206-3.386-9.011-5.225-13.427-.171-.424.291-.315.6-.105,8.166,5.556,10.938,11.764,13.538,20.1a70.049,70.049,0,0,0-1.881-13.066c-2.02-7.93-5.717-15.724-11.686-21.439C58.518,302.714,58.838,302.355,59.073,302.573Z" fill="#aac2e6"/>
          <g id="Group_5" data-name="Group 5">
            <path id="Path_10" data-name="Path 10" d="M56.676,304.157c-2.244.161-3.516,3.806-5.227,4.92a1.685,1.685,0,0,1-2.494-.295c-1.827-2.356.44-5.434,2.614-7.19-1.576.719-2.859,1.927-4.572,2.32a1.625,1.625,0,0,1-2.15-1.178c-.886-3.273,3.2-4.9,6.037-5.077-1.413-.9-5.46-3.358-3.412-4.717,2.077-1.366,6.851,2.179,8.408,3.348,2.29,1.717,5.041,4.309,5.248,7.123C61.383,306.7,58.431,304.781,56.676,304.157Z" fill="#aac2e6"/>
            <path id="Path_12" data-name="Path 12" d="M57.347,304.686c-2.922-1.2-8.369.893-8.88-.176-1.035-2.177,3.317-3.862,5.686-4.247-2.215-.51-6.451-1.3-6.4-3.415.059-2.588,6.428-.607,9.7,1.711,4.124,2.92,4.211,5.886,3.571,6.505C60.146,305.913,57.829,304.884,57.347,304.686Z" fill="#d5e6ff"/>
          </g>
        </g>
        <g id="Group_8" data-name="Group 8">
          <path id="Path_13" data-name="Path 13" d="M72.925,335.026a133.179,133.179,0,0,0,4.206,19.429.483.483,0,0,0,.946-.191c-.889-5.988-2.511-11.864-3.4-17.851a89.893,89.893,0,0,1-1.04-18.328c.57-10.089,3.31-20.821,9.893-28.715.145-.188-.162-.452-.311-.278-13.181,15.368-11.084,34.211-11.072,35.9-1.866-6.363-3.789-13.656-10.847-20.134-.305-.28-.542-.147-.491.328,1.262,11.8,4.543,17.962,11.384,24.271C72.387,331.327,72.628,333.188,72.925,335.026Z" fill="#aac2e6"/>
          <g id="Group_7" data-name="Group 7">
            <path id="Path_14" data-name="Path 14" d="M83.648,291.137c2.371-1.053,5.642,1.966,7.988,2.172a1.943,1.943,0,0,0,2.378-1.653c.581-3.389-3.395-5.291-6.561-5.9,1.994-.123,3.955.409,5.912-.119a1.875,1.875,0,0,0,1.549-2.366c-.874-3.811-5.913-3.25-8.9-1.891.948-1.688,3.735-6.379.913-6.652-2.854-.263-5.789,5.934-6.74,7.969-1.4,2.989-2.792,7.119-1.476,10.1C80.235,296.275,82.2,292.724,83.648,291.137Z" fill="#aac2e6"/>
            <path id="Path_16" data-name="Path 16" d="M83.252,292.04c2.325-2.8,9-3.631,8.941-5-.127-2.777-5.47-2.132-8.09-1.238,1.977-1.721,5.861-4.819,4.663-6.949-1.465-2.6-6.871,2.87-8.946,7.005-2.612,5.209-1.092,8.274-.105,8.557C81.069,294.807,82.869,292.5,83.252,292.04Z" fill="#d5e6ff"/>
          </g>
        </g>
        <path id="Path_17" data-name="Path 17" d="M64.253,338.578,58.44,382.993H93.814c-.729-3.935-7.313-44.467-7.313-44.467Z" fill="#d5e6ff"/>
      </g>
    </g>
    <g id="Floor">
      <line id="Line_1" data-name="Line 1" x2="413.252" transform="translate(43.374 383.143)" fill="none" stroke="#d5e6ff" stroke-linecap="round" stroke-linejoin="round" stroke-width="1"/>
    </g>
    <g id="Shadow">
      <ellipse id="Ellipse_1" data-name="Ellipse 1" cx="149.057" cy="21.075" rx="149.057" ry="21.075" transform="translate(100.943 427.965)" fill="#ebebeb"/>
    </g>
    <g id="_404_Error" data-name="404 Error">
      <g id="Group_12" data-name="Group 12">
        <g id="Group_10" data-name="Group 10">
          <path id="Path_18" data-name="Path 18" d="M157.573,227.672l-6.209-24.43-49.037,12.463-6.481-25.5,39.188-89.311,19.437-4.94,18.9,74.359,15.692-3.988L195.587,192,179.9,195.991l6.209,24.43Zm-33.6-44.806,24.251-6.163-8.021-31.563Z" fill="#d83535"/>
          <path id="Path_19" data-name="Path 19" d="M298.021,146.118a65.553,65.553,0,0,1-3.679,22.355,55.493,55.493,0,0,1-10.121,17.663,45.818,45.818,0,0,1-15.178,11.591A43.924,43.924,0,0,1,250,201.867a44.5,44.5,0,0,1-19.134-4.14,45.493,45.493,0,0,1-15.271-11.591,54.106,54.106,0,0,1-10.028-17.663,71.432,71.432,0,0,1,0-44.709A54.086,54.086,0,0,1,215.594,106.1a46.614,46.614,0,0,1,15.271-11.684A43.71,43.71,0,0,1,250,90.185a43.141,43.141,0,0,1,19.044,4.232A46.965,46.965,0,0,1,284.221,106.1a55.471,55.471,0,0,1,10.121,17.663A65.547,65.547,0,0,1,298.021,146.118Zm-29.623,0q0-12.876-5.152-20.883t-13.247-8q-8.464,0-13.522,8t-5.06,20.883q0,12.881,5.06,20.791T250,174.82q8.1,0,13.247-7.911T268.4,146.118Z" fill="#d83535"/>
          <path id="Path_20" data-name="Path 20" d="M350.843,222.964l4.031-24.882-49.945-8.091,4.207-25.972,71.508-66.325,19.8,3.207-12.27,75.735,15.983,2.59-4.237,26.153-15.983-2.589L379.9,227.672Zm-12.981-54.478,24.7,4,5.209-32.147Z" fill="#d83535"/>
        </g>
        <g id="Group_11" data-name="Group 11">
          <path id="Path_21" data-name="Path 21" d="M208.675,72.461a13.038,13.038,0,0,1-5.716-1.232,14.018,14.018,0,0,1-4.4-3.272A15.176,15.176,0,0,1,194.7,57.918a14.412,14.412,0,0,1,1.071-5.494,15.16,15.16,0,0,1,2.948-4.645,14.076,14.076,0,0,1,4.464-3.212,13.254,13.254,0,0,1,5.615-1.191,12.585,12.585,0,0,1,5.676,1.272,14.18,14.18,0,0,1,4.383,3.332,15.362,15.362,0,0,1,2.828,4.687A14.748,14.748,0,0,1,222.693,58a14.529,14.529,0,0,1-1.05,5.474,14.9,14.9,0,0,1-2.909,4.605,13.977,13.977,0,0,1-4.444,3.191A13.242,13.242,0,0,1,208.675,72.461Zm-8.322-14.543a11.5,11.5,0,0,0,.566,3.6,9.582,9.582,0,0,0,1.636,3.07,8.141,8.141,0,0,0,2.626,2.142,8.137,8.137,0,0,0,7.109-.021,8.116,8.116,0,0,0,2.626-2.2,9.788,9.788,0,0,0,1.616-3.089,11.466,11.466,0,0,0,.546-3.495,11.192,11.192,0,0,0-.586-3.595,9.938,9.938,0,0,0-1.657-3.071,7.9,7.9,0,0,0-2.625-2.12,8.182,8.182,0,0,0-7.09.04,7.984,7.984,0,0,0-2.625,2.182,9.783,9.783,0,0,0-1.6,3.07A11.464,11.464,0,0,0,200.353,57.918Z" fill="#d83535"/>
          <path id="Path_22" data-name="Path 22" d="M236.226,72.663a11.623,11.623,0,0,1-4.646-.889,10.436,10.436,0,0,1-3.495-2.4,10.608,10.608,0,0,1-2.2-3.5,11.764,11.764,0,0,1,0-8.362,10.6,10.6,0,0,1,2.2-3.494,10.438,10.438,0,0,1,3.495-2.4,11.623,11.623,0,0,1,4.646-.889,11.482,11.482,0,0,1,4.625.889,10.427,10.427,0,0,1,5.675,5.9,11.764,11.764,0,0,1,0,8.362,10.772,10.772,0,0,1-2.181,3.5,10.219,10.219,0,0,1-3.474,2.4A11.625,11.625,0,0,1,236.226,72.663Zm-5.535-10.948a7.365,7.365,0,0,0,.424,2.565,6.26,6.26,0,0,0,1.172,2,5.221,5.221,0,0,0,1.757,1.313,5.35,5.35,0,0,0,4.363,0,5.231,5.231,0,0,0,1.757-1.313,6.208,6.208,0,0,0,1.171-2.02,7.533,7.533,0,0,0,.425-2.585,7.424,7.424,0,0,0-.425-2.545,6.218,6.218,0,0,0-1.171-2.02,5.244,5.244,0,0,0-1.757-1.313,5.171,5.171,0,0,0-2.181-.464,4.975,4.975,0,0,0-2.182.484,5.5,5.5,0,0,0-1.757,1.333,6.23,6.23,0,0,0-1.172,2.02A7.424,7.424,0,0,0,230.691,61.715Z" fill="#d83535"/>
          <path id="Path_23" data-name="Path 23" d="M263.613,72.663a8.341,8.341,0,0,1-4.362-1.111,7.9,7.9,0,0,1-2.909-3.01V80.863h-5.413V51.091h4.726v3.636a8.639,8.639,0,0,1,3.03-2.929,8.433,8.433,0,0,1,4.282-1.071,9.066,9.066,0,0,1,3.959.869,9.8,9.8,0,0,1,3.131,2.343,10.923,10.923,0,0,1,2.06,3.474,11.967,11.967,0,0,1,.747,4.222,13.361,13.361,0,0,1-.686,4.322,11.067,11.067,0,0,1-1.919,3.515,8.977,8.977,0,0,1-2.929,2.343A8.2,8.2,0,0,1,263.613,72.663ZM261.8,68.058a4.857,4.857,0,0,0,2.242-.526,5.423,5.423,0,0,0,1.757-1.413,6.664,6.664,0,0,0,1.131-2.061,7.386,7.386,0,0,0,.4-2.423,6.845,6.845,0,0,0-.444-2.485,6.18,6.18,0,0,0-1.233-2,5.754,5.754,0,0,0-1.858-1.333,5.567,5.567,0,0,0-2.322-.484,5.081,5.081,0,0,0-1.576.262,5.556,5.556,0,0,0-1.495.748,6.54,6.54,0,0,0-1.232,1.131,4.71,4.71,0,0,0-.828,1.414v4.968a7.2,7.2,0,0,0,2.221,3.01A5.084,5.084,0,0,0,261.8,68.058Z" fill="#d83535"/>
          <path id="Path_24" data-name="Path 24" d="M284.539,72.663a16.388,16.388,0,0,1-5.211-.848,12.721,12.721,0,0,1-4.363-2.424L276.984,66a17.413,17.413,0,0,0,3.778,2.08,10.131,10.131,0,0,0,3.656.707,4.625,4.625,0,0,0,2.545-.606,1.953,1.953,0,0,0,.929-1.737,1.735,1.735,0,0,0-1.091-1.656,23.453,23.453,0,0,0-3.555-1.212q-2.06-.566-3.515-1.091a9,9,0,0,1-2.342-1.192,4.067,4.067,0,0,1-1.293-1.535,4.891,4.891,0,0,1-.4-2.08,6.582,6.582,0,0,1,.626-2.909,6.341,6.341,0,0,1,1.757-2.2,8.133,8.133,0,0,1,2.647-1.393,10.743,10.743,0,0,1,3.292-.485,14.149,14.149,0,0,1,4.463.687A10.874,10.874,0,0,1,292.3,53.6l-2.182,3.272a12.685,12.685,0,0,0-3.131-1.778,8.548,8.548,0,0,0-3.008-.565,4.356,4.356,0,0,0-2.3.565,1.969,1.969,0,0,0-.93,1.818,1.746,1.746,0,0,0,.223.929,1.939,1.939,0,0,0,.707.646,6.854,6.854,0,0,0,1.272.546q.789.264,1.959.545,2.181.567,3.737,1.132A10.182,10.182,0,0,1,291.184,62a4.623,4.623,0,0,1,1.455,1.676,5.179,5.179,0,0,1,.463,2.283,5.889,5.889,0,0,1-2.3,4.908A9.913,9.913,0,0,1,284.539,72.663Z" fill="#d83535"/>
          <path id="Path_25" data-name="Path 25" d="M297.667,61.473V43.294h5.413V61.473Zm0,10.786v-6.1h5.413v6.1Z" fill="#d83535"/>
        </g>
      </g>
    </g>
    <g id="Robot">
      <g id="Group_55" data-name="Group 55">
        <g id="Group_13" data-name="Group 13">
          <rect id="Rectangle_11" data-name="Rectangle 11" width="35.512" height="2.909" transform="translate(235.089 313.845)" fill="#feab29"/>
          <rect id="Rectangle_12" data-name="Rectangle 12" width="35.512" height="2.909" transform="translate(235.089 317.634)" fill="#feab29"/>
          <rect id="Rectangle_13" data-name="Rectangle 13" width="35.512" height="2.909" transform="translate(235.089 321.424)" fill="#feab29"/>
          <rect id="Rectangle_14" data-name="Rectangle 14" width="35.512" height="2.909" transform="translate(235.089 325.213)" fill="#feab29"/>
          <rect id="Rectangle_15" data-name="Rectangle 15" width="35.512" height="2.909" transform="translate(235.089 329.002)" fill="#feab29"/>
        </g>
        <g id="Group_14" data-name="Group 14">
          <rect id="Rectangle_16" data-name="Rectangle 16" width="67.516" height="2.909" transform="translate(218.458 404.594)" fill="#2a6fdb"/>
          <rect id="Rectangle_17" data-name="Rectangle 17" width="67.516" height="2.909" transform="translate(218.458 408.383)" fill="#2a6fdb"/>
          <rect id="Rectangle_18" data-name="Rectangle 18" width="67.516" height="2.909" transform="translate(218.458 412.172)" fill="#2a6fdb"/>
          <rect id="Rectangle_19" data-name="Rectangle 19" width="67.516" height="2.909" transform="translate(218.458 415.961)" fill="#2a6fdb"/>
          <rect id="Rectangle_20" data-name="Rectangle 20" width="67.516" height="2.909" transform="translate(218.458 419.751)" fill="#2a6fdb"/>
        </g>
        <g id="Group_26" data-name="Group 26">
          <g id="Group_15" data-name="Group 15">
            <path id="Path_26" data-name="Path 26" d="M188.834,289.8c.033-.393-14.778-5.354-14.778-5.354l.875-50.886,19.639-4.214Z" fill="#feab29"/>
          </g>
          <g id="Group_16" data-name="Group 16">
            <path id="Path_28" data-name="Path 28" d="M324.489,309.772c.1-.38,15.718.058,15.718.058l16.69-48.079-16.989-10.715Z" fill="#feab29"/>
          </g>
          <path id="Path_30" data-name="Path 30" d="M185.983,308.536s5.491-82.3,10.307-109.372c0,0,99.416,7.519,153.086,28.033,0,0-27.67,96.127-29.1,100.9C320.275,328.1,250.267,314.3,185.983,308.536Z" fill="#2a6fdb"/>
          <g id="Group_17" data-name="Group 17">
            <path id="Path_31" data-name="Path 31" d="M274.722,210.155q-2.424,14.863-4.945,29.711l-5.124,29.679-.277-.42,33.311,7.914,16.638,4.032,16.619,4.112-16.707-3.739-16.688-3.818-33.341-7.788-.337-.079.061-.341,5.3-29.647Q271.913,224.951,274.722,210.155Z" fill="#2f4ec5"/>
            <path id="Path_32" data-name="Path 32" d="M271.067,215.8a1.945,1.945,0,0,1-1.746,1.932,1.942,1.942,0,1,1,0-3.866A1.946,1.946,0,0,1,271.067,215.8Zm0,0a1.559,1.559,0,0,0-1.746-1.557,1.571,1.571,0,0,0,0,3.116,1.559,1.559,0,0,0,1.746-1.559Z" fill="#2f4ec5"/>
            <path id="Path_33" data-name="Path 33" d="M269.321,228.048a1.944,1.944,0,0,1-1.745,1.933,1.942,1.942,0,1,1,0-3.867A1.946,1.946,0,0,1,269.321,228.048Zm0,0a1.557,1.557,0,0,0-1.745-1.557,1.571,1.571,0,0,0,0,3.117,1.56,1.56,0,0,0,1.745-1.56Z" fill="#2f4ec5"/>
            <path id="Path_34" data-name="Path 34" d="M267.171,240.987a1.943,1.943,0,0,1-1.745,1.932,1.942,1.942,0,1,1,0-3.866A1.945,1.945,0,0,1,267.171,240.987Zm0,0a1.557,1.557,0,0,0-1.745-1.557,1.571,1.571,0,0,0,0,3.116,1.588,1.588,0,0,0,1.2-.361A1.608,1.608,0,0,0,267.171,240.987Z" fill="#2f4ec5"/>
            <path id="Path_35" data-name="Path 35" d="M265.021,253.926a1.944,1.944,0,0,1-1.745,1.932,1.942,1.942,0,1,1,0-3.866A1.944,1.944,0,0,1,265.021,253.926Zm0,0a1.557,1.557,0,0,0-1.745-1.557,1.571,1.571,0,0,0,0,3.116,1.56,1.56,0,0,0,1.745-1.559Z" fill="#2f4ec5"/>
            <path id="Path_36" data-name="Path 36" d="M272.347,274.561a1.945,1.945,0,0,1-1.746,1.932,1.942,1.942,0,1,1,0-3.866A1.946,1.946,0,0,1,272.347,274.561Zm0,0A1.559,1.559,0,0,0,270.6,273a1.571,1.571,0,0,0,0,3.116,1.561,1.561,0,0,0,1.746-1.559Z" fill="#2f4ec5"/>
            <path id="Path_37" data-name="Path 37" d="M284.56,277.54a1.943,1.943,0,0,1-1.746,1.932,1.942,1.942,0,1,1,0-3.866A1.945,1.945,0,0,1,284.56,277.54Zm0,0a1.558,1.558,0,0,0-1.746-1.557,1.571,1.571,0,0,0,0,3.116,1.589,1.589,0,0,0,1.2-.361A1.608,1.608,0,0,0,284.56,277.54Z" opacity="0.1"/>
            <path id="Path_38" data-name="Path 38" d="M296.774,280.52a1.945,1.945,0,0,1-1.746,1.932,1.942,1.942,0,1,1,0-3.867A1.948,1.948,0,0,1,296.774,280.52Zm0,0a1.559,1.559,0,0,0-1.746-1.558,1.571,1.571,0,0,0,0,3.117,1.561,1.561,0,0,0,1.746-1.559Z" opacity="0.1"/>
            <path id="Path_39" data-name="Path 39" d="M308.987,283.5a1.944,1.944,0,0,1-1.746,1.932,1.942,1.942,0,1,1,0-3.866A1.946,1.946,0,0,1,308.987,283.5Zm0,0a1.558,1.558,0,0,0-1.746-1.557,1.571,1.571,0,0,0,0,3.116,1.561,1.561,0,0,0,1.746-1.559Z" opacity="0.1"/>
            <path id="Path_40" data-name="Path 40" d="M321.2,286.612a1.944,1.944,0,0,1-1.889,1.793,1.942,1.942,0,1,1,.3-3.855A1.945,1.945,0,0,1,321.2,286.612Zm0,0a1.558,1.558,0,0,0-1.62-1.687,1.571,1.571,0,0,0-.24,3.107,1.559,1.559,0,0,0,1.86-1.42Z" opacity="0.1"/>
            <path id="Path_41" data-name="Path 41" d="M262.871,266.865a1.944,1.944,0,0,1-1.745,1.932,1.942,1.942,0,1,1,0-3.866A1.944,1.944,0,0,1,262.871,266.865Zm0,0a1.557,1.557,0,0,0-1.745-1.558,1.571,1.571,0,0,0,0,3.117,1.56,1.56,0,0,0,1.745-1.559Z" fill="#2f4ec5"/>
          </g>
          <g id="Group_24" data-name="Group 24">
            <g id="Group_19" data-name="Group 19">
              <circle id="Ellipse_2" data-name="Ellipse 2" cx="28.231" cy="28.231" r="28.231" transform="translate(183.565 265.192) rotate(-41.961)" opacity="0.2"/>
              <path id="Path_2958" data-name="Path 2958" d="M22.641,0A22.641,22.641,0,1,1,0,22.641,22.641,22.641,0,0,1,22.641,0Z" transform="translate(194.244 280.468) rotate(-69.267)" fill="#d5e6ff"/>
              <g id="Group_18" data-name="Group 18">
                <rect id="Rectangle_21" data-name="Rectangle 21" width="5.362" height="5.362" transform="translate(216.771 258.143) rotate(9.202)" fill="#2a6fdb"/>
                <rect id="Rectangle_22" data-name="Rectangle 22" width="5.362" height="5.362" transform="translate(212.335 251.992) rotate(9.202)" fill="#2a6fdb"/>
                <rect id="Rectangle_23" data-name="Rectangle 23" width="5.362" height="5.362" transform="translate(233.507 255.422) rotate(9.202)" fill="#2a6fdb"/>
                <rect id="Rectangle_24" data-name="Rectangle 24" width="5.362" height="5.362" transform="translate(208.925 273.045) rotate(9.202)" fill="#2a6fdb"/>
                <rect id="Rectangle_25" data-name="Rectangle 25" width="5.362" height="5.362" transform="translate(230.097 276.475) rotate(9.202)" fill="#2a6fdb"/>
                <rect id="Rectangle_26" data-name="Rectangle 26" width="5.362" height="5.362" transform="translate(215.075 268.609) rotate(9.202)" fill="#2a6fdb"/>
                <rect id="Rectangle_27" data-name="Rectangle 27" width="5.362" height="5.362" transform="translate(221.216 264.234) rotate(9.202)" fill="#2a6fdb"/>
                <rect id="Rectangle_28" data-name="Rectangle 28" width="5.362" height="5.362" transform="translate(227.357 259.858) rotate(9.202)" fill="#2a6fdb"/>
                <rect id="Rectangle_29" data-name="Rectangle 29" width="5.362" height="5.362" transform="translate(225.661 270.324) rotate(9.203)" fill="#2a6fdb"/>
              </g>
            </g>
            <g id="Group_23" data-name="Group 23">
              <g id="Group_20" data-name="Group 20">
                <circle id="Ellipse_4" data-name="Ellipse 4" cx="28.231" cy="28.231" r="28.231" transform="translate(259.462 283.083) rotate(-50.667)" fill="#feab29"/>
              </g>
              <path id="Path_2959" data-name="Path 2959" d="M22.641,0A22.641,22.641,0,1,1,0,22.641,22.641,22.641,0,0,1,22.641,0Z" transform="translate(269.572 266.977) rotate(-22.676)" fill="#fafcfe"/>
              <g id="Group_21" data-name="Group 21">
                <rect id="Rectangle_30" data-name="Rectangle 30" width="5.362" height="26.689" transform="translate(299.669 265.537) rotate(13.369)" fill="#2a6fdb"/>
              </g>
              <g id="Group_22" data-name="Group 22">
                <path id="Path_43" data-name="Path 43" d="M328.3,285.141,270.5,271.4a29.705,29.705,0,0,1,57.8,13.736Z" fill="#feab29"/>
              </g>
            </g>
            <path id="Path_45" data-name="Path 45" d="M250.071,295.922a10.455,10.455,0,0,1,2.612-6.356,7.65,7.65,0,0,1,3.069-2.065,8.631,8.631,0,0,1,3.7-.411,6.888,6.888,0,0,1,5.8,4.333,11.563,11.563,0,0,1,.589,6.848,18.118,18.118,0,0,0-1.99-6.137,5.876,5.876,0,0,0-4.614-3.06,7.008,7.008,0,0,0-5.484,1.6A14.818,14.818,0,0,0,250.071,295.922Z" fill="#2f4ec5"/>
          </g>
          <g id="Group_25" data-name="Group 25">
            <path id="Path_46" data-name="Path 46" d="M193.716,238.34c.235-3.017.573-6.018.859-9.027.321-3,.651-6.007,1.017-9,.347-3,.738-6,1.121-8.99s.81-5.984,1.213-8.977l.107-.8.81.051q9.772.615,19.505,1.6,4.867.5,9.722,1.126c3.231.464,6.467.892,9.679,1.48L218.232,204.6l-19.5-1.262.917-.748c-.443,2.987-.854,5.978-1.324,8.961s-.916,5.969-1.415,8.948c-.479,2.982-.995,5.958-1.519,8.934C194.834,232.4,194.327,235.377,193.716,238.34Z" fill="#fff"/>
            <path id="Path_47" data-name="Path 47" d="M198.411,261.156a24.66,24.66,0,0,1,4.517-10.09c.551-.756,1.178-1.456,1.782-2.176.652-.673,1.331-1.325,2-1.987.73-.594,1.468-1.183,2.218-1.754.8-.505,1.584-1.032,2.4-1.517.853-.41,1.7-.833,2.562-1.222l2.682-.928,2.776-.573c.932-.136,1.879-.165,2.814-.235a27.206,27.206,0,0,1,10.869,2.083,38.687,38.687,0,0,0-10.78-.715,25.352,25.352,0,0,0-10.073,3.126A29.4,29.4,0,0,0,204,251.917,33.3,33.3,0,0,0,198.411,261.156Z" fill="#fff"/>
            <path id="Path_48" data-name="Path 48" d="M276.287,268.782a24.643,24.643,0,0,1,5.866-9.369c.65-.674,1.368-1.28,2.065-1.909.739-.577,1.5-1.129,2.258-1.692.8-.487,1.617-.969,2.439-1.431.86-.39,1.711-.8,2.581-1.172.9-.288,1.8-.59,2.706-.856l2.785-.549,2.829-.184c.941-.007,1.883.1,2.819.155a27.214,27.214,0,0,1,10.477,3.564,38.69,38.69,0,0,0-10.578-2.2,25.346,25.346,0,0,0-10.408,1.705,29.411,29.411,0,0,0-9.032,5.555A33.285,33.285,0,0,0,276.287,268.782Z" fill="#fff"/>
          </g>
        </g>
        <g id="Group_45" data-name="Group 45">
          <g id="Group_29" data-name="Group 29">
            <g id="Group_27" data-name="Group 27">
              <path id="Path_49" data-name="Path 49" d="M189.141,359.252c-7.232,0-23.063-1.626-33.251-14.725-13.034-16.758-8.324-48.914-8.117-50.275l5.659.86c-.047.309-4.545,31.09,6.976,45.9,11.263,14.481,31.692,12.4,31.9,12.377l.645,5.687A35.788,35.788,0,0,1,189.141,359.252Z" fill="#fed530"/>
            </g>
            <path id="Path_51" data-name="Path 51" d="M155.1,299.005a19.73,19.73,0,0,1-3.159-.26c-9.546-1.546-13.772-7.258-15.637-11.778s-2.3-10.01-1.283-16.286l12.106,1.961c-.63,3.889-.447,7.315.515,9.648.686,1.664,2.018,3.661,6.261,4.349,1.938.314,4.032.148,6.227-3.162a22.869,22.869,0,0,0,3.067-8.231l12.106,1.961a35.441,35.441,0,0,1-4.952,13.048C166.557,295.972,161.222,299.005,155.1,299.005Z" fill="#feab29"/>
            <g id="Group_28" data-name="Group 28">
              <path id="Path_52" data-name="Path 52" d="M201.1,375.633c-.021-.261-10.256-1.9-10.256-1.9l-4.968-33.406,12.4-4.9Z" fill="#feab29"/>
            </g>
          </g>
          <g id="Group_30" data-name="Group 30">
            <path id="Path_54" data-name="Path 54" d="M302.3,375.7c.027-.261,10.3-1.669,10.3-1.669l5.7-33.288-12.286-5.169Z" fill="#f7d452"/>
          </g>
          <path id="Path_56" data-name="Path 56" d="M196.841,327.955s82.786-3.54,110.751,1.121c0,0-8.212,80.106-8.656,81.66,0,0-82.351-.222-95.224,0C203.712,410.736,196.735,357.469,196.841,327.955Z" fill="#2a6fdb"/>
          <g id="Group_41" data-name="Group 41">
            <path id="Path_57" data-name="Path 57" d="M221.987,349.906s45.193-1.785,60.459.565c0,0-4.483,40.394-4.725,41.177,0,0-44.956-.112-51.984,0C225.737,391.648,222.649,364,221.987,349.906Z" opacity="0.2"/>
            <path id="Path_58" data-name="Path 58" d="M228.164,391.631c-1.034,0-1.855.013-2.429.02,0,0-3.084-27.651-3.751-41.747,0,0,1.028-.04,2.823-.1Z" opacity="0.2"/>
            <g id="Group_35" data-name="Group 35">
              <g id="Group_34" data-name="Group 34">
                <g id="Group_33" data-name="Group 33">
                  <g id="Group_32" data-name="Group 32">
                    <path id="Path_59" data-name="Path 59" d="M241.494,359.873a4.807,4.807,0,1,0,3.137,6.03A4.807,4.807,0,0,0,241.494,359.873Zm2.58,5.853a4.22,4.22,0,1,1-2.754-5.292A4.219,4.219,0,0,1,244.074,365.726Zm-2.58-5.853a4.807,4.807,0,1,0,3.137,6.03A4.807,4.807,0,0,0,241.494,359.873Zm2.58,5.853a4.22,4.22,0,1,1-2.754-5.292A4.219,4.219,0,0,1,244.074,365.726Zm-2.58-5.853a4.807,4.807,0,1,0,3.137,6.03A4.807,4.807,0,0,0,241.494,359.873Zm2.58,5.853a4.22,4.22,0,1,1-2.754-5.292A4.219,4.219,0,0,1,244.074,365.726ZM243.1,354.8A10.132,10.132,0,1,0,249.71,367.5,10.135,10.135,0,0,0,243.1,354.8Zm2.25,11.331a5.553,5.553,0,1,1-3.626-6.964A5.56,5.56,0,0,1,245.346,366.126Zm-.715-.223a4.805,4.805,0,1,0-6.025,3.14A4.807,4.807,0,0,0,244.631,365.9Zm-.557-.177a4.22,4.22,0,1,1-2.754-5.292A4.219,4.219,0,0,1,244.074,365.726Zm-2.58-5.853a4.807,4.807,0,1,0,3.137,6.03A4.807,4.807,0,0,0,241.494,359.873Zm2.58,5.853a4.22,4.22,0,1,1-2.754-5.292A4.219,4.219,0,0,1,244.074,365.726Zm-2.58-5.853a4.807,4.807,0,1,0,3.137,6.03A4.807,4.807,0,0,0,241.494,359.873Zm2.58,5.853a4.22,4.22,0,1,1-2.754-5.292A4.219,4.219,0,0,1,244.074,365.726Z" fill="#ffc727"/>
                    <g id="Group_31" data-name="Group 31">
                      <path id="Path_60" data-name="Path 60" d="M238.988,374.305l-3.715-1.171-.623,2.695,3.3,1.041Z" fill="#ffc727"/>
                      <path id="Path_61" data-name="Path 61" d="M232.311,370.825l-1.8-3.455-2.346,1.465,1.6,3.073Z" fill="#ffc727"/>
                      <path id="Path_62" data-name="Path 62" d="M230.05,363.642l1.171-3.715-2.695-.623-1.041,3.3Z" fill="#ffc727"/>
                      <path id="Path_63" data-name="Path 63" d="M233.53,356.965l3.455-1.8-1.465-2.346-3.073,1.6Z" fill="#ffc727"/>
                      <path id="Path_64" data-name="Path 64" d="M240.712,354.7l3.715,1.171.623-2.695-3.3-1.041Z" fill="#ffc727"/>
                      <path id="Path_65" data-name="Path 65" d="M247.39,358.184l1.8,3.455,2.346-1.465-1.6-3.073Z" fill="#ffc727"/>
                      <path id="Path_66" data-name="Path 66" d="M249.651,365.367l-1.171,3.715,2.695.623,1.041-3.3Z" fill="#ffc727"/>
                      <path id="Path_67" data-name="Path 67" d="M246.171,372.044l-3.455,1.8,1.465,2.346,3.073-1.6Z" fill="#ffc727"/>
                    </g>
                  </g>
                </g>
              </g>
            </g>
            <g id="Group_40" data-name="Group 40">
              <g id="Group_39" data-name="Group 39">
                <g id="Group_38" data-name="Group 38">
                  <g id="Group_37" data-name="Group 37">
                    <path id="Path_68" data-name="Path 68" d="M257.835,374.012a3.236,3.236,0,1,0,.944,4.478A3.237,3.237,0,0,0,257.835,374.012Zm.615,4.262a2.841,2.841,0,1,1-.83-3.93A2.84,2.84,0,0,1,258.45,378.274Zm-.615-4.262a3.236,3.236,0,1,0,.944,4.478A3.237,3.237,0,0,0,257.835,374.012Zm.615,4.262a2.841,2.841,0,1,1-.83-3.93A2.84,2.84,0,0,1,258.45,378.274Zm-.615-4.262a3.236,3.236,0,1,0,.944,4.478A3.237,3.237,0,0,0,257.835,374.012Zm.615,4.262a2.841,2.841,0,1,1-.83-3.93A2.84,2.84,0,0,1,258.45,378.274Zm1.342-7.265a6.821,6.821,0,1,0,1.992,9.436A6.823,6.823,0,0,0,259.792,371.009Zm-.59,7.755a3.738,3.738,0,1,1-1.092-5.172A3.742,3.742,0,0,1,259.2,378.764Zm-.423-.274a3.235,3.235,0,1,0-4.475.947A3.237,3.237,0,0,0,258.779,378.49Zm-.329-.216a2.841,2.841,0,1,1-.83-3.93A2.84,2.84,0,0,1,258.45,378.274Zm-.615-4.262a3.236,3.236,0,1,0,.944,4.478A3.237,3.237,0,0,0,257.835,374.012Zm.615,4.262a2.841,2.841,0,1,1-.83-3.93A2.84,2.84,0,0,1,258.45,378.274Zm-.615-4.262a3.236,3.236,0,1,0,.944,4.478A3.237,3.237,0,0,0,257.835,374.012Zm.615,4.262a2.841,2.841,0,1,1-.83-3.93A2.84,2.84,0,0,1,258.45,378.274Z" fill="#dbdbdb"/>
                    <g id="Group_36" data-name="Group 36">
                      <path id="Path_69" data-name="Path 69" d="M253.6,382.918l-2.2-1.431-.892,1.635,1.955,1.273Z" fill="#dbdbdb"/>
                      <path id="Path_70" data-name="Path 70" d="M249.9,379.454l-.542-2.566-1.786.526.482,2.282Z" fill="#dbdbdb"/>
                      <path id="Path_71" data-name="Path 71" d="M249.732,374.387l1.431-2.2-1.635-.891-1.273,1.955Z" fill="#dbdbdb"/>
                      <path id="Path_72" data-name="Path 72" d="M253.2,370.686l2.566-.542-.526-1.786-2.282.482Z" fill="#dbdbdb"/>
                      <path id="Path_73" data-name="Path 73" d="M258.263,370.519l2.2,1.431.892-1.635-1.955-1.273Z" fill="#dbdbdb"/>
                      <path id="Path_74" data-name="Path 74" d="M261.964,373.983l.542,2.566,1.786-.526-.482-2.282Z" fill="#dbdbdb"/>
                      <path id="Path_75" data-name="Path 75" d="M262.131,379.05l-1.431,2.2,1.635.891,1.273-1.955Z" fill="#dbdbdb"/>
                      <path id="Path_76" data-name="Path 76" d="M258.667,382.751l-2.566.542.526,1.786,2.282-.482Z" fill="#dbdbdb"/>
                    </g>
                  </g>
                </g>
              </g>
            </g>
          </g>
          <g id="Group_43" data-name="Group 43">
            <path id="Path_77" data-name="Path 77" d="M305.594,401.414l3.181.592,9.1-61.627-3.625-.666Z" fill="#fed530"/>
            <g id="Group_42" data-name="Group 42">
              <path id="Path_78" data-name="Path 78" d="M277.721,391.648l4.725-41.177,31.8-10.758s-8.656,62.367-8.656,61.7Z" fill="#feab29"/>
            </g>
          </g>
          <path id="Path_80" data-name="Path 80" d="M200.64,352.139c-.518-3.411-.8-6.85-1.011-10.292-.1-1.721-.141-3.445-.18-5.17s-.064-3.449-.013-5.174l.014-.454.441-.023c6.318-.339,12.632-.755,18.953-1.031,6.32-.312,12.641-.6,18.965-.793-6.3.571-12.613,1.057-18.923,1.515-6.307.493-12.623.847-18.934,1.277l.455-.477-.026,5.15.06,5.152q.012,2.577.09,5.156Z" fill="#fff"/>
          <path id="Path_81" data-name="Path 81" d="M286.882,351.075q2.957-1.4,6-2.609c2.019-.822,4.056-1.6,6.117-2.314s4.135-1.4,6.241-1.981a58.476,58.476,0,0,1,6.392-1.493l.533-.087-.1.509c-.5,2.666-1.022,5.328-1.639,7.975.231-2.708.557-5.4.906-8.091l.438.422c-2.1.5-4.185,1.086-6.263,1.7s-4.146,1.275-6.21,1.947Z" fill="#fff"/>
          <g id="Group_44" data-name="Group 44">
            <path id="Path_82" data-name="Path 82" d="M214.4,328.122l.536,10.3.458,10.3.794,20.608.621,20.614.248,10.309.17,10.312-.537-10.3-.458-10.3-.793-20.608-.619-20.614-.249-10.309Z" opacity="0.1"/>
            <path id="Path_83" data-name="Path 83" d="M211.453,334.33a1.945,1.945,0,0,1-1.329,2.24,1.942,1.942,0,1,1-.764-3.79A1.944,1.944,0,0,1,211.453,334.33Zm0,0a1.558,1.558,0,0,0-2.019-1.181,1.571,1.571,0,0,0,.616,3.055,1.561,1.561,0,0,0,1.4-1.874Z" opacity="0.1"/>
            <path id="Path_84" data-name="Path 84" d="M212.162,346.679a1.945,1.945,0,0,1-1.329,2.24,1.942,1.942,0,1,1-.764-3.79A1.944,1.944,0,0,1,212.162,346.679Zm0,0a1.558,1.558,0,0,0-2.019-1.181,1.571,1.571,0,0,0,.616,3.055,1.559,1.559,0,0,0,1.4-1.874Z" opacity="0.1"/>
            <path id="Path_85" data-name="Path 85" d="M212.612,359.788a1.943,1.943,0,0,1-1.329,2.239,1.942,1.942,0,1,1-.764-3.79A1.946,1.946,0,0,1,212.612,359.788Zm0,0a1.559,1.559,0,0,0-2.019-1.182,1.571,1.571,0,0,0,.616,3.055,1.559,1.559,0,0,0,1.4-1.873Z" opacity="0.1"/>
            <path id="Path_86" data-name="Path 86" d="M213.062,372.9a1.945,1.945,0,0,1-1.329,2.24,1.942,1.942,0,1,1-.764-3.791A1.946,1.946,0,0,1,213.062,372.9Zm0,0a1.557,1.557,0,0,0-2.019-1.181,1.571,1.571,0,0,0,.616,3.055,1.561,1.561,0,0,0,1.4-1.874Z" opacity="0.1"/>
            <path id="Path_87" data-name="Path 87" d="M213.512,386.005a1.944,1.944,0,0,1-1.329,2.239,1.942,1.942,0,1,1-.765-3.79A1.946,1.946,0,0,1,213.512,386.005Zm0,0a1.559,1.559,0,0,0-2.019-1.182,1.571,1.571,0,0,0,.616,3.055,1.56,1.56,0,0,0,1.4-1.873Z" opacity="0.1"/>
            <path id="Path_88" data-name="Path 88" d="M213.962,399.113a1.943,1.943,0,0,1-1.329,2.239,1.942,1.942,0,1,1-.765-3.79A1.947,1.947,0,0,1,213.962,399.113Zm0,0a1.608,1.608,0,0,0-.774-1.065,1.591,1.591,0,0,0-1.245-.116,1.571,1.571,0,0,0,.616,3.055,1.561,1.561,0,0,0,1.4-1.874Z" opacity="0.1"/>
          </g>
        </g>
        <g id="Group_48" data-name="Group 48">
          <rect id="Rectangle_31" data-name="Rectangle 31" width="48.981" height="5.723" transform="translate(171.154 433.361) rotate(-16.86)" fill="#feab29"/>
          <rect id="Rectangle_33" data-name="Rectangle 33" width="5.723" height="8.501" transform="translate(190.118 425.813) rotate(-17.644)" fill="#fed530"/>
          <g id="Group_47" data-name="Group 47">
            <path id="Path_89" data-name="Path 89" d="M172.427,446.863l-12.1-52.379-36.51,8.656L141.8,454.187Z" fill="#fed530"/>
            <g id="Group_46" data-name="Group 46">
              <path id="Path_90" data-name="Path 90" d="M180.528,444.2l-8.1,2.663-12.1-52.379,11.652,2.774Z" fill="#feab29"/>
            </g>
          </g>
          <circle id="Ellipse_7" data-name="Ellipse 7" cx="6.214" cy="6.214" r="6.214" transform="translate(212.645 415.68)" fill="#feab29"/>
        </g>
        <g id="Group_51" data-name="Group 51">
          <rect id="Rectangle_34" data-name="Rectangle 34" width="5.723" height="48.981" transform="matrix(0.292, -0.956, 0.956, 0.292, 281.142, 424.487)" fill="#feab29"/>
          <rect id="Rectangle_36" data-name="Rectangle 36" width="8.501" height="5.723" transform="matrix(0.305, -0.952, 0.952, 0.305, 302.667, 432.079)" fill="#f7d452"/>
          <g id="Group_50" data-name="Group 50">
            <path id="Path_92" data-name="Path 92" d="M328.357,446.818l12.207-52.353,36.491,8.733L358.97,454.207Z" fill="#f7d452"/>
            <g id="Group_49" data-name="Group 49">
              <path id="Path_93" data-name="Path 93" d="M320.262,444.137l8.1,2.681,12.207-52.353-11.658,2.75Z" fill="#feab29"/>
            </g>
          </g>
          <path id="Path_95" data-name="Path 95" d="M275.764,421.737a6.215,6.215,0,1,0,6.228-6.2A6.215,6.215,0,0,0,275.764,421.737Z" fill="#feab29"/>
        </g>
        <g id="Group_53" data-name="Group 53">
          <g id="Group_52" data-name="Group 52">
            <path id="Path_96" data-name="Path 96" d="M322.663,357.132c.146-.138,15.2-14.1,32.914-9.327,18.113,4.887,33.066,32.167,33.215,32.443l5.034-2.722c-.654-1.211-16.251-29.724-36.759-35.246-20.857-5.625-37.642,10.034-38.347,10.7Z" fill="#feab29"/>
          </g>
          <path id="Path_98" data-name="Path 98" d="M382.118,407.712l10.845-5.726a22.9,22.9,0,0,1-2.509-8.418c-.241-3.965,1.332-5.359,3.068-6.275,3.8-2.007,6.067-1.211,7.616-.3,2.173,1.283,4.383,3.908,6.222,7.392l10.846-5.726c-2.969-5.622-6.613-9.736-10.834-12.227s-11.025-4.5-19.577.015c-6.666,3.519-10.069,9.864-9.582,17.865A35.45,35.45,0,0,0,382.118,407.712Z" fill="#fed530"/>
        </g>
        <g id="Group_54" data-name="Group 54">
          <path id="Path_99" data-name="Path 99" d="M324.949,338.022c2.351-1.624,4.758-3.154,7.172-4.67s4.859-2.983,7.308-4.441c2.461-1.437,4.923-2.872,7.425-4.241l3.754-2.049c1.27-.652,2.522-1.334,3.808-1.959-1.171.821-2.374,1.586-3.559,2.381l-3.613,2.29c-2.409,1.525-4.858,2.983-7.308,4.439-2.462,1.436-4.924,2.872-7.426,4.24S327.509,336.753,324.949,338.022Z" fill="#fed530"/>
          <path id="Path_100" data-name="Path 100" d="M318.72,361.423c3.367,1.919,6.558,4.083,9.7,6.308,3.13,2.25,6.216,4.561,9.124,7.122-3.367-1.917-6.558-4.081-9.7-6.308C324.716,366.293,321.63,363.982,318.72,361.423Z" fill="#fed530"/>
          <path id="Path_101" data-name="Path 101" d="M324.249,358.545c2.6.789,5.156,1.681,7.708,2.588s5.083,1.866,7.611,2.836c2.519.992,5.037,1.986,7.527,3.052l3.734,1.6c1.231.568,2.475,1.1,3.695,1.7-1.3-.385-2.582-.831-3.873-1.244l-3.835-1.343c-2.556-.9-5.084-1.866-7.61-2.837-2.519-.993-5.037-1.987-7.527-3.054S326.7,359.719,324.249,358.545Z" fill="#fed530"/>
          <path id="Path_102" data-name="Path 102" d="M331.63,340.217c2.49-.647,5-1.186,7.51-1.709s5.033-.99,7.556-1.446c2.528-.433,5.055-.864,7.6-1.219l3.813-.528c1.277-.141,2.548-.315,3.83-.425-1.243.334-2.5.6-3.746.907l-3.764.8c-2.509.533-5.032.99-7.556,1.445-2.527.431-5.055.863-7.6,1.217S334.191,339.977,331.63,340.217Z" fill="#fed530"/>
        </g>
      </g>
    </g>
    <g id="Gears">
      <g id="Group_75" data-name="Group 75">
        <path id="Path_103" data-name="Path 103" d="M271.622,355.787c1.39-6.144,6.7-16.295,14.642-15.018s8.527,12.684,4.443,12.329-4.346-23.322,9.565-26.989,22.314,10.279,22.314,10.279" transform="translate(-8 -10)" fill="none" stroke="#d5e6ff" stroke-miterlimit="10" stroke-width="1"/>
        <path id="Path_104" data-name="Path 104" d="M179.217,381.7c2.921-5.184,10.35-9.147,16.667-6.551,9.21,3.786,10.612,17.917,5.884,17.653-7.577-.425,2.036-20.5,16.829-18.862,13.323,1.472,15.478,16.95,15.478,16.95" fill="none" stroke="#fed530" stroke-miterlimit="10" stroke-width="1"/>
        <path id="Path_105" data-name="Path 105" d="M132.953,140.208c.116-6.3-2.616-17.424-10.635-18.079s-11.308,10.282-7.257,10.912,9.786-21.611-2.848-28.492-24.121,4.656-24.121,4.656" fill="none" stroke="#feab29" stroke-miterlimit="10" stroke-width="1"/>
        <path id="Path_106" data-name="Path 106" d="M353.77,192.371c-6.1-1.582-17.553-1.521-20.061,6.123s7.36,13.4,8.917,9.6-18.731-14.559-28.37-3.88-1.1,24.543-1.1,24.543" fill="none" stroke="#feab29" stroke-miterlimit="10" stroke-width="1"/>
        <path id="Path_107" data-name="Path 107" d="M291.86,127.671c-1.839-6.887,1.207-16.5,8.791-19.566,11.059-4.468,24.092,6.463,19.82,10.194-6.846,5.981-15.416-19.26-1.376-30.246,12.645-9.894,27.449,1.56,27.449,1.56" fill="none" stroke="#feab29" stroke-miterlimit="10" stroke-width="1"/>
      </g>
    </g>
  </g>
</svg>
